<?xml version="1.0" encoding="UTF-8" standalone="no"?>
<!DOCTYPE svg PUBLIC "-//W3C//DTD SVG 1.1//EN" "http://www.w3.org/Graphics/SVG/1.1/DTD/svg11.dtd">
<svg width="100%" height="100%" viewBox="0 0 1511 2314" version="1.1" xmlns="http://www.w3.org/2000/svg" xmlns:xlink="http://www.w3.org/1999/xlink" xml:space="preserve" xmlns:serif="http://www.serif.com/" style="fill-rule:evenodd;clip-rule:evenodd;stroke-linejoin:round;stroke-miterlimit:2;">
    <g transform="matrix(1,0,0,1,-4852,-3749)">
        <g transform="matrix(6,0,0,6,-3578.63,3378)">
            <g transform="matrix(1,0,0,1,-2810.37,0)">
                <path d="M4467.13,81.049C4467.13,70.529 4458.6,62 4448.08,62C4409.75,62 4272.99,62 4234.67,62C4224.15,62 4215.62,70.529 4215.62,81.049C4215.62,131.903 4215.62,361.084 4215.62,428.343C4215.62,435.343 4219.46,441.779 4225.62,445.105C4231.77,448.431 4239.26,448.111 4245.11,444.271C4271.49,426.971 4323.76,392.683 4340.8,381.504C4341.15,381.275 4341.6,381.275 4341.95,381.504C4358.99,392.683 4411.26,426.971 4437.63,444.271C4443.48,448.111 4450.97,448.431 4457.13,445.105C4463.29,441.779 4467.13,435.343 4467.13,428.343L4467.13,81.049ZM4234.45,80.021C4233.98,80.119 4233.62,80.542 4233.62,81.049C4233.62,131.903 4233.62,361.084 4233.62,428.343C4233.62,428.729 4233.83,429.083 4234.17,429.266C4234.51,429.45 4234.92,429.432 4235.24,429.22C4261.61,411.921 4313.88,377.633 4330.92,366.454C4337.27,362.292 4345.48,362.292 4351.82,366.454C4368.86,377.633 4421.13,411.921 4447.5,429.22C4447.83,429.432 4448.24,429.45 4448.58,429.266C4448.92,429.083 4449.13,428.729 4449.13,428.343L4449.13,81.049C4449.13,80.47 4448.66,80 4448.08,80C4409.75,80 4272.99,80 4234.67,80L4234.45,80.021ZM4332.37,176.129L4332.37,143.725C4332.37,138.758 4336.41,134.725 4341.37,134.725C4346.34,134.725 4350.37,138.758 4350.37,143.725L4350.37,176.129L4390.88,176.129C4395.84,176.129 4399.88,180.161 4399.88,185.129C4399.88,190.096 4395.84,194.129 4390.88,194.129L4350.37,194.129L4350.37,284.732C4350.37,289.699 4346.34,293.732 4341.37,293.732C4336.41,293.732 4332.37,289.699 4332.37,284.732L4332.37,194.129L4291.87,194.129C4286.9,194.129 4282.87,190.096 4282.87,185.129C4282.87,180.161 4286.9,176.129 4291.87,176.129L4332.37,176.129Z" style="fill:rgb(110,149,203);stroke:white;stroke-width:0.17px;"/>
            </g>
        </g>
    </g>
</svg>
