<?xml version="1.0" encoding="UTF-8" standalone="no"?>
<!DOCTYPE svg PUBLIC "-//W3C//DTD SVG 1.1//EN" "http://www.w3.org/Graphics/SVG/1.1/DTD/svg11.dtd">
<svg width="100%" height="100%" viewBox="0 0 786 182" version="1.1" xmlns="http://www.w3.org/2000/svg" xmlns:xlink="http://www.w3.org/1999/xlink" xml:space="preserve" xmlns:serif="http://www.serif.com/" style="fill-rule:evenodd;clip-rule:evenodd;stroke-linejoin:round;stroke-miterlimit:2;">
    <g transform="matrix(1,0,0,1,-3093,-161)">
        <g transform="matrix(1.33333,0,0,1.33333,2972,0)">
            <g transform="matrix(1.04665,0,0,1.04665,-17.744,-8.5859)">
                <g transform="matrix(0.0728564,0,0,0.0728564,-1009.03,-403.697)">
                    <path d="M15538.5,7610.99L15381.8,7701.42C15381.8,7701.42 15333.4,7617.46 15301.7,7562.67C15287,7537.13 15295.7,7504.48 15321.3,7489.74C15321.3,7489.74 15321.3,7489.74 15321.3,7489.74C15333.6,7482.65 15348.1,7480.74 15361.8,7484.4C15375.5,7488.07 15387.2,7497.02 15394.2,7509.28C15407.6,7532.41 15420.9,7555.53 15420.9,7555.53C15420.9,7555.53 15789.5,7342.74 15921.4,7266.6C15946.9,7251.86 15979.5,7260.61 15994.3,7286.14C15994.3,7286.15 15994.3,7286.16 15994.3,7286.17C16001.4,7298.43 16003.3,7313 15999.6,7326.68C15996,7340.35 15987,7352.02 15974.8,7359.09C15929.9,7385.01 15868.5,7420.46 15868.5,7420.46L15868.5,8743.06C15921.5,8743.06 15971.6,8743.07 16014.2,8743.09C16360.1,8743.21 16450.2,8662.07 16523.2,8444.67L16630,8444.67L16580,8849.9L15382.8,8849.9L15382.8,8743.09C15382.8,8743.09 15382.8,8743.09 15382.9,8743.09C15468.8,8743.07 15538.5,8673.4 15538.5,8587.45C15538.5,8277.15 15538.5,7610.99 15538.5,7610.99Z" style="fill:white;"/>
                </g>
                <g transform="matrix(0.0786374,0,0,0.0786374,104.382,94.2084)">
                    <path d="M6193.74,680.799C6267.53,681.149 6339.96,710.024 6393.36,759.729C6451.49,813.833 6486.25,892.746 6487.25,971.49C6487.26,972.733 6487.27,973.975 6487.27,975.218L6466.27,975.255L6487.27,975.27L6487.35,1180.99L6487.35,1230.55L6412.35,1230.55L6412.35,1181L6412.35,1171.46C6350.09,1241.03 6256.71,1277.51 6163.66,1268.34C6096.12,1261.69 6031.33,1230.79 5983.35,1182.23C5942.02,1140.42 5913.57,1085.95 5903.07,1028.26C5888.87,950.274 5907.59,866.994 5954.23,802.663C6005.36,732.147 6088.52,685.988 6176.73,681.23C6182.4,680.924 6188.09,680.79 6193.74,680.799ZM6192.07,755.799C6127.59,756.104 6064.7,785.741 6023.43,835.729C5978.59,890.046 5961.86,966.675 5981.81,1036C5999.87,1098.77 6047.4,1152.35 6108.03,1177.79C6161.15,1200.08 6223.1,1200.26 6276.31,1178.3C6346.1,1149.51 6399.09,1083.01 6410.04,1006.68C6418.01,951.208 6403.95,892.953 6371.01,847.221C6333.25,794.802 6271.86,760.16 6206.2,756.201C6201.5,755.917 6196.79,755.791 6192.07,755.799Z" style="fill:white;fill-rule:nonzero;"/>
                </g>
                <g transform="matrix(0.120909,0,0,0.0778336,231.463,114.932)">
                    <path d="M2470.3,245.448C2548.01,245.948 2625.21,296.829 2676.4,388.426C2706.44,442.171 2725.9,509.783 2732.03,580.811C2738.12,651.363 2732.69,724.865 2713.94,789.408C2698.64,842.096 2674.35,888.265 2644.71,923.584C2598.93,978.129 2541.54,1008.02 2484.34,1012.58C2479.43,1012.97 2474.52,1013.16 2469.6,1013.17L2325.79,1013.17L2325.79,245.446C2373.96,245.446 2422.13,245.343 2470.3,245.448ZM2374.57,321.221L2374.57,937.397C2406.43,937.397 2438.3,937.457 2470.16,937.396C2504.62,937.2 2539.06,925.852 2570.53,904.184C2604.97,880.467 2636.05,843.265 2656.66,794.475C2681.55,735.565 2689.72,660.878 2683.68,590.882C2677.15,515.17 2651.24,444.75 2610.98,396.169C2574.25,351.848 2528.53,325.923 2482.03,321.779C2478.08,321.427 2474.13,321.247 2470.17,321.222C2438.3,321.153 2406.44,321.221 2374.57,321.221Z" style="fill:white;fill-rule:nonzero;"/>
                </g>
                <g transform="matrix(-0.0656601,0,0,0.0656601,551.765,106.677)">
                    <path d="M1040.44,623.066C950.811,623.491 861.26,659.347 795.992,722.698C728.433,788.272 688.994,881.55 688.883,975.728L688.883,1283.53L778.707,1283.53C778.707,1180.65 778.587,1077.77 778.708,974.892C778.995,913.912 801.106,853.387 840.268,806.794C876.972,763.123 928.094,731.766 983.802,719.26C1054.68,703.347 1131.9,718.274 1191.72,760.021C1259.52,807.336 1303.07,887.607 1304.41,971.502C1304.43,972.933 1304.44,974.364 1304.44,975.794L1304.44,1283.53L1394.26,1283.53L1394.26,667.976L1304.44,667.976L1304.44,740.699C1304.06,740.274 1303.68,739.851 1303.3,739.427C1237.16,666.491 1142.15,623.538 1042.71,623.066C1041.95,623.065 1041.19,623.065 1040.44,623.066Z" style="fill:white;fill-rule:nonzero;"/>
                </g>
                <g transform="matrix(0.0656601,0,0,0.0656601,362.53,106.677)">
                    <path d="M1042.71,623.066C1132.76,623.493 1221.13,659.362 1285.63,721.23C1337.91,771.366 1374.32,837.951 1387.95,909.07C1402.07,982.735 1392.11,1060.86 1359.44,1128.64C1322.19,1205.93 1255.86,1268.65 1176.85,1301.52C1091.45,1337.05 991.876,1337.13 906.295,1301.52C810.452,1261.64 733.924,1177.48 703.806,1077.47C677.968,991.675 686.198,896.43 727.033,816.155C776.785,718.35 873.71,645.693 984.658,627.647C1003.84,624.528 1023.28,623.035 1042.71,623.066ZM1040.72,712.889C959.082,713.276 879.852,753.165 830.936,818.557C782.038,883.923 765.939,972.293 789.814,1051.57C812.103,1125.58 868.663,1188.32 940.061,1218.28C1003.62,1244.95 1077.86,1245.19 1141.61,1218.9C1225.35,1184.36 1288.68,1104.57 1301.77,1013.35C1311.83,943.297 1292.21,869.316 1248.36,813.539C1200.82,753.055 1125.68,714.936 1048.37,712.974C1045.82,712.909 1043.27,712.885 1040.72,712.889Z" style="fill:white;fill-rule:nonzero;"/>
                </g>
                <g transform="matrix(0.120909,0,0,0.0778336,71.0161,114.932)">
                    <path d="M2470.3,245.448C2548.02,245.948 2625.69,297.095 2676.92,389.354C2707.43,444.303 2726.79,513.652 2732.43,585.678C2737.84,654.808 2732.26,726.34 2713.94,789.408C2698.78,841.598 2674.81,887.378 2645.61,922.499C2595.93,982.269 2532.26,1013.05 2469.6,1013.17L2325.79,1013.17L2325.79,245.446C2373.96,245.446 2422.13,245.343 2470.3,245.448ZM2374.57,321.221L2374.57,937.397C2406.43,937.397 2438.3,937.457 2470.16,937.396C2504.6,937.2 2539.06,925.852 2570.53,904.184C2605.04,880.414 2636.1,843.14 2656.66,794.469C2681.26,736.266 2689.59,663.005 2683.87,593.138C2678.31,525.179 2657.15,460.812 2624.43,413.876C2583.98,355.84 2529.15,323.179 2474.3,321.302C2472.92,321.254 2471.55,321.231 2470.17,321.222C2438.3,321.153 2406.44,321.221 2374.57,321.221Z" style="fill:white;fill-rule:nonzero;"/>
                </g>
                <g transform="matrix(-0.0656601,0,0,0.0656601,391.318,106.677)">
                    <path d="M1040.44,623.066C976.209,623.371 911.751,641.486 856.885,675.294C787.154,718.263 733.089,786.163 707.094,863.704C695.02,899.716 688.939,937.708 688.883,975.722L688.883,1283.53L778.707,1283.53C778.707,1180.65 778.557,1077.78 778.708,974.898C779.023,907.922 805.992,841.13 852.97,792.735C901.696,742.538 970.831,712.888 1041.57,712.888C1114.15,712.888 1185.95,744.507 1235.06,797.898C1277.91,844.492 1303.17,906.609 1304.39,970.651C1304.42,972.365 1304.44,974.08 1304.44,975.794L1304.44,1283.53L1394.26,1283.53L1394.26,667.976L1304.44,667.976L1304.44,740.699C1304.06,740.276 1303.68,739.853 1303.3,739.431C1241,670.692 1148.87,626.591 1054.04,623.282C1049.51,623.123 1044.97,623.059 1040.44,623.066Z" style="fill:white;fill-rule:nonzero;"/>
                </g>
                <g transform="matrix(0.0786374,0,0,0.0786374,91.0848,94.0512)">
                    <g transform="matrix(1.08808,0,0,0.733695,-18.9825,513.827)">
                        <rect x="2315.72" y="283.333" width="68.929" height="691.951" style="fill:white;fill-rule:nonzero;"/>
                    </g>
                    <g transform="matrix(0.0871021,0,0,0.00835743,2333.49,639.477)">
                        <rect x="1919.65" y="-4203.69" width="861.058" height="9666" style="fill:white;fill-rule:nonzero;"/>
                    </g>
                </g>
                <g transform="matrix(0.120909,0,0,0.0778336,-49.0134,114.932)">
                    <path d="M2470.3,245.448C2556.89,246.005 2643.86,310.448 2692.97,421.7C2726.61,497.912 2739.87,594.29 2732.3,687.085C2727.94,740.487 2716.04,792.399 2697,837.086C2671.16,897.766 2632.67,944.482 2589.61,973.925C2553.43,998.67 2514.1,1012.05 2474.48,1013.11C2472.86,1013.15 2471.23,1013.17 2469.6,1013.17L2325.79,1013.17L2325.79,245.446C2373.96,245.446 2422.13,245.343 2470.3,245.448ZM2374.57,321.221L2374.57,937.397C2406.43,937.397 2438.3,937.457 2470.16,937.396C2504.62,937.2 2539.06,925.851 2570.53,904.183C2605.04,880.417 2636.1,843.131 2656.66,794.469C2686.08,724.878 2692.62,633.705 2678.87,553.18C2669.93,500.816 2651.11,452.738 2625.58,415.541C2584.74,356.013 2529.15,323.179 2474.3,321.302C2472.92,321.254 2471.55,321.231 2470.17,321.222C2438.3,321.153 2406.44,321.221 2374.57,321.221Z" style="fill:white;fill-rule:nonzero;"/>
                </g>
                <g transform="matrix(0.258475,0,0,0.213264,-2100.55,29.0731)">
                    <g transform="matrix(205.268,0,0,245.314,9004.91,994.737)">
                        <path d="M0.098,-0L0.098,-0.714L0.181,-0.714L0.181,-0.075L0.496,-0.075L0.496,-0L0.098,-0Z" style="fill:white;fill-rule:nonzero;"/>
                    </g>
                    <g transform="matrix(205.268,0,0,245.314,9111.45,994.737)">
                        <path d="M0.312,0.01C0.233,0.01 0.17,-0.014 0.125,-0.063C0.079,-0.111 0.056,-0.178 0.056,-0.263C0.056,-0.349 0.077,-0.418 0.12,-0.469C0.162,-0.52 0.219,-0.545 0.291,-0.545C0.358,-0.545 0.411,-0.523 0.45,-0.479C0.489,-0.435 0.509,-0.376 0.509,-0.304L0.509,-0.253L0.14,-0.253C0.142,-0.19 0.158,-0.142 0.188,-0.11C0.218,-0.077 0.26,-0.061 0.315,-0.061C0.373,-0.061 0.43,-0.073 0.486,-0.097L0.486,-0.025C0.457,-0.013 0.43,-0.004 0.405,0.002C0.379,0.007 0.348,0.01 0.312,0.01ZM0.29,-0.477C0.247,-0.477 0.213,-0.463 0.187,-0.435C0.162,-0.407 0.147,-0.368 0.142,-0.319L0.422,-0.319C0.422,-0.37 0.41,-0.409 0.388,-0.436C0.365,-0.463 0.332,-0.477 0.29,-0.477Z" style="fill:white;fill-rule:nonzero;"/>
                    </g>
                    <g transform="matrix(205.268,0,0,245.314,9226.61,994.737)">
                        <path d="M0.259,-0.057C0.273,-0.057 0.287,-0.058 0.3,-0.06C0.314,-0.062 0.324,-0.065 0.332,-0.067L0.332,-0.005C0.323,-0.001 0.31,0.003 0.293,0.006C0.276,0.008 0.261,0.01 0.247,0.01C0.144,0.01 0.092,-0.045 0.092,-0.154L0.092,-0.472L0.015,-0.472L0.015,-0.511L0.092,-0.545L0.126,-0.659L0.173,-0.659L0.173,-0.535L0.328,-0.535L0.328,-0.472L0.173,-0.472L0.173,-0.157C0.173,-0.125 0.181,-0.1 0.196,-0.083C0.211,-0.066 0.232,-0.057 0.259,-0.057Z" style="fill:white;fill-rule:nonzero;"/>
                    </g>
                    <g transform="matrix(205.268,0,0,245.314,9299.08,994.737)">
                        <path d="M0.259,-0.057C0.273,-0.057 0.287,-0.058 0.3,-0.06C0.314,-0.062 0.324,-0.065 0.332,-0.067L0.332,-0.005C0.323,-0.001 0.31,0.003 0.293,0.006C0.276,0.008 0.261,0.01 0.247,0.01C0.144,0.01 0.092,-0.045 0.092,-0.154L0.092,-0.472L0.015,-0.472L0.015,-0.511L0.092,-0.545L0.126,-0.659L0.173,-0.659L0.173,-0.535L0.328,-0.535L0.328,-0.472L0.173,-0.472L0.173,-0.157C0.173,-0.125 0.181,-0.1 0.196,-0.083C0.211,-0.066 0.232,-0.057 0.259,-0.057Z" style="fill:white;fill-rule:nonzero;"/>
                    </g>
                    <g transform="matrix(205.268,0,0,245.314,9371.54,994.737)">
                        <path d="M0.162,-0.535L0.162,-0.188C0.162,-0.144 0.172,-0.112 0.192,-0.09C0.212,-0.069 0.243,-0.058 0.285,-0.058C0.341,-0.058 0.382,-0.073 0.408,-0.104C0.434,-0.135 0.447,-0.185 0.447,-0.254L0.447,-0.535L0.528,-0.535L0.528,-0L0.461,-0L0.449,-0.072L0.445,-0.072C0.428,-0.045 0.405,-0.025 0.376,-0.011C0.346,0.003 0.313,0.01 0.275,0.01C0.21,0.01 0.161,-0.006 0.129,-0.037C0.096,-0.068 0.08,-0.117 0.08,-0.185L0.08,-0.535L0.162,-0.535Z" style="fill:white;fill-rule:nonzero;"/>
                    </g>
                    <g transform="matrix(205.268,0,0,245.314,9497.53,994.737)">
                        <path d="M0.33,-0.545C0.354,-0.545 0.375,-0.543 0.394,-0.539L0.383,-0.464C0.361,-0.469 0.341,-0.471 0.324,-0.471C0.281,-0.471 0.244,-0.454 0.213,-0.418C0.182,-0.383 0.167,-0.34 0.167,-0.287L0.167,-0L0.086,-0L0.086,-0.535L0.153,-0.535L0.162,-0.436L0.166,-0.436C0.186,-0.471 0.21,-0.498 0.238,-0.517C0.266,-0.535 0.297,-0.545 0.33,-0.545Z" style="fill:white;fill-rule:nonzero;"/>
                    </g>
                    <g transform="matrix(205.268,0,0,245.314,9581.32,994.737)">
                        <path d="M0.312,0.01C0.233,0.01 0.17,-0.014 0.125,-0.063C0.079,-0.111 0.056,-0.178 0.056,-0.263C0.056,-0.349 0.077,-0.418 0.12,-0.469C0.162,-0.52 0.219,-0.545 0.291,-0.545C0.358,-0.545 0.411,-0.523 0.45,-0.479C0.489,-0.435 0.509,-0.376 0.509,-0.304L0.509,-0.253L0.14,-0.253C0.142,-0.19 0.158,-0.142 0.188,-0.11C0.218,-0.077 0.26,-0.061 0.315,-0.061C0.373,-0.061 0.43,-0.073 0.486,-0.097L0.486,-0.025C0.457,-0.013 0.43,-0.004 0.405,0.002C0.379,0.007 0.348,0.01 0.312,0.01ZM0.29,-0.477C0.247,-0.477 0.213,-0.463 0.187,-0.435C0.162,-0.407 0.147,-0.368 0.142,-0.319L0.422,-0.319C0.422,-0.37 0.41,-0.409 0.388,-0.436C0.365,-0.463 0.332,-0.477 0.29,-0.477Z" style="fill:white;fill-rule:nonzero;"/>
                    </g>
                    <g transform="matrix(205.268,0,0,245.314,9749.8,994.737)">
                        <path d="M0.45,-0.072L0.446,-0.072C0.408,-0.017 0.352,0.01 0.278,0.01C0.208,0.01 0.153,-0.014 0.115,-0.062C0.076,-0.11 0.056,-0.178 0.056,-0.266C0.056,-0.354 0.076,-0.423 0.115,-0.472C0.154,-0.521 0.208,-0.545 0.278,-0.545C0.35,-0.545 0.406,-0.519 0.445,-0.466L0.451,-0.466L0.448,-0.504L0.446,-0.542L0.446,-0.76L0.527,-0.76L0.527,-0L0.461,-0L0.45,-0.072ZM0.288,-0.058C0.343,-0.058 0.384,-0.073 0.408,-0.103C0.433,-0.133 0.446,-0.182 0.446,-0.249L0.446,-0.266C0.446,-0.342 0.433,-0.396 0.408,-0.428C0.383,-0.461 0.342,-0.477 0.287,-0.477C0.24,-0.477 0.203,-0.459 0.178,-0.422C0.153,-0.385 0.14,-0.333 0.14,-0.265C0.14,-0.197 0.153,-0.145 0.178,-0.11C0.203,-0.076 0.24,-0.058 0.288,-0.058Z" style="fill:white;fill-rule:nonzero;"/>
                    </g>
                    <g transform="matrix(205.268,0,0,245.314,9875.59,994.737)">
                        <path d="M0.312,0.01C0.233,0.01 0.17,-0.014 0.125,-0.063C0.079,-0.111 0.056,-0.178 0.056,-0.263C0.056,-0.349 0.077,-0.418 0.12,-0.469C0.162,-0.52 0.219,-0.545 0.291,-0.545C0.358,-0.545 0.411,-0.523 0.45,-0.479C0.489,-0.435 0.509,-0.376 0.509,-0.304L0.509,-0.253L0.14,-0.253C0.142,-0.19 0.158,-0.142 0.188,-0.11C0.218,-0.077 0.26,-0.061 0.315,-0.061C0.373,-0.061 0.43,-0.073 0.486,-0.097L0.486,-0.025C0.457,-0.013 0.43,-0.004 0.405,0.002C0.379,0.007 0.348,0.01 0.312,0.01ZM0.29,-0.477C0.247,-0.477 0.213,-0.463 0.187,-0.435C0.162,-0.407 0.147,-0.368 0.142,-0.319L0.422,-0.319C0.422,-0.37 0.41,-0.409 0.388,-0.436C0.365,-0.463 0.332,-0.477 0.29,-0.477Z" style="fill:white;fill-rule:nonzero;"/>
                    </g>
                    <g transform="matrix(205.268,0,0,245.314,9990.75,994.737)">
                        <rect x="0.086" y="-0.76" width="0.081" height="0.76" style="fill:white;fill-rule:nonzero;"/>
                    </g>
                    <g transform="matrix(205.268,0,0,245.314,10096,994.737)">
                        <path d="M0.524,-0.535L0.524,-0.484L0.425,-0.472C0.434,-0.461 0.442,-0.446 0.449,-0.427C0.456,-0.409 0.46,-0.388 0.46,-0.365C0.46,-0.313 0.442,-0.271 0.406,-0.24C0.37,-0.208 0.321,-0.193 0.259,-0.193C0.243,-0.193 0.228,-0.194 0.214,-0.197C0.179,-0.179 0.162,-0.156 0.162,-0.128C0.162,-0.113 0.168,-0.102 0.18,-0.095C0.192,-0.088 0.213,-0.085 0.242,-0.085L0.337,-0.085C0.395,-0.085 0.439,-0.073 0.47,-0.048C0.502,-0.024 0.517,0.012 0.517,0.058C0.517,0.117 0.493,0.163 0.446,0.194C0.398,0.225 0.329,0.24 0.238,0.24C0.168,0.24 0.114,0.227 0.076,0.201C0.038,0.175 0.019,0.138 0.019,0.091C0.019,0.058 0.029,0.03 0.05,0.006C0.071,-0.017 0.1,-0.034 0.138,-0.042C0.125,-0.048 0.113,-0.058 0.104,-0.071C0.094,-0.084 0.09,-0.099 0.09,-0.116C0.09,-0.136 0.095,-0.153 0.105,-0.167C0.116,-0.182 0.132,-0.196 0.155,-0.21C0.127,-0.221 0.105,-0.241 0.087,-0.268C0.07,-0.295 0.061,-0.327 0.061,-0.362C0.061,-0.42 0.079,-0.466 0.114,-0.497C0.149,-0.529 0.199,-0.545 0.263,-0.545C0.291,-0.545 0.316,-0.542 0.339,-0.535L0.524,-0.535ZM0.097,0.09C0.097,0.119 0.109,0.141 0.134,0.156C0.158,0.171 0.193,0.178 0.239,0.178C0.307,0.178 0.357,0.168 0.39,0.148C0.423,0.127 0.439,0.1 0.439,0.065C0.439,0.036 0.43,0.016 0.412,0.005C0.394,-0.007 0.361,-0.012 0.311,-0.012L0.214,-0.012C0.177,-0.012 0.148,-0.003 0.128,0.014C0.107,0.032 0.097,0.057 0.097,0.09ZM0.141,-0.364C0.141,-0.326 0.152,-0.298 0.173,-0.279C0.194,-0.26 0.223,-0.25 0.261,-0.25C0.34,-0.25 0.38,-0.288 0.38,-0.365C0.38,-0.446 0.34,-0.486 0.26,-0.486C0.222,-0.486 0.192,-0.476 0.172,-0.455C0.151,-0.435 0.141,-0.404 0.141,-0.364Z" style="fill:white;fill-rule:nonzero;"/>
                    </g>
                    <g transform="matrix(205.268,0,0,245.314,10208.4,994.737)">
                        <path d="M0.167,-0L0.086,-0L0.086,-0.535L0.167,-0.535L0.167,-0ZM0.079,-0.68C0.079,-0.699 0.084,-0.712 0.093,-0.721C0.102,-0.73 0.113,-0.734 0.127,-0.734C0.14,-0.734 0.151,-0.729 0.161,-0.721C0.17,-0.712 0.175,-0.698 0.175,-0.68C0.175,-0.662 0.17,-0.648 0.161,-0.639C0.151,-0.63 0.14,-0.626 0.127,-0.626C0.113,-0.626 0.102,-0.63 0.093,-0.639C0.084,-0.648 0.079,-0.662 0.079,-0.68Z" style="fill:white;fill-rule:nonzero;"/>
                    </g>
                    <g transform="matrix(205.268,0,0,245.314,10260.4,994.737)">
                        <path d="M0.548,-0.268C0.548,-0.181 0.526,-0.113 0.482,-0.064C0.438,-0.015 0.377,0.01 0.3,0.01C0.252,0.01 0.209,-0.001 0.172,-0.024C0.135,-0.046 0.107,-0.079 0.086,-0.121C0.066,-0.163 0.056,-0.212 0.056,-0.268C0.056,-0.355 0.078,-0.423 0.122,-0.472C0.165,-0.521 0.226,-0.545 0.303,-0.545C0.378,-0.545 0.438,-0.52 0.482,-0.47C0.526,-0.42 0.548,-0.353 0.548,-0.268ZM0.14,-0.268C0.14,-0.2 0.154,-0.148 0.181,-0.112C0.208,-0.076 0.249,-0.058 0.302,-0.058C0.355,-0.058 0.395,-0.076 0.423,-0.112C0.45,-0.147 0.464,-0.199 0.464,-0.268C0.464,-0.336 0.45,-0.388 0.423,-0.423C0.395,-0.458 0.354,-0.476 0.301,-0.476C0.248,-0.476 0.208,-0.459 0.181,-0.424C0.154,-0.389 0.14,-0.337 0.14,-0.268Z" style="fill:white;fill-rule:nonzero;"/>
                    </g>
                    <g transform="matrix(205.268,0,0,245.314,10384.3,994.737)">
                        <path d="M0.33,-0.545C0.354,-0.545 0.375,-0.543 0.394,-0.539L0.383,-0.464C0.361,-0.469 0.341,-0.471 0.324,-0.471C0.281,-0.471 0.244,-0.454 0.213,-0.418C0.182,-0.383 0.167,-0.34 0.167,-0.287L0.167,-0L0.086,-0L0.086,-0.535L0.153,-0.535L0.162,-0.436L0.166,-0.436C0.186,-0.471 0.21,-0.498 0.238,-0.517C0.266,-0.535 0.297,-0.545 0.33,-0.545Z" style="fill:white;fill-rule:nonzero;"/>
                    </g>
                    <g transform="matrix(205.268,0,0,245.314,10468.1,994.737)">
                        <path d="M0.452,-0L0.452,-0.346C0.452,-0.39 0.442,-0.422 0.422,-0.444C0.403,-0.465 0.371,-0.476 0.329,-0.476C0.273,-0.476 0.232,-0.461 0.206,-0.431C0.18,-0.4 0.167,-0.35 0.167,-0.281L0.167,-0L0.086,-0L0.086,-0.535L0.152,-0.535L0.165,-0.462L0.169,-0.462C0.186,-0.488 0.209,-0.509 0.239,-0.523C0.269,-0.538 0.302,-0.545 0.339,-0.545C0.403,-0.545 0.452,-0.529 0.484,-0.498C0.517,-0.467 0.533,-0.417 0.533,-0.349L0.533,-0L0.452,-0Z" style="fill:white;fill-rule:nonzero;"/>
                    </g>
                    <g transform="matrix(205.268,0,0,245.314,10594.1,994.737)">
                        <path d="M0.548,-0.268C0.548,-0.181 0.526,-0.113 0.482,-0.064C0.438,-0.015 0.377,0.01 0.3,0.01C0.252,0.01 0.209,-0.001 0.172,-0.024C0.135,-0.046 0.107,-0.079 0.086,-0.121C0.066,-0.163 0.056,-0.212 0.056,-0.268C0.056,-0.355 0.078,-0.423 0.122,-0.472C0.165,-0.521 0.226,-0.545 0.303,-0.545C0.378,-0.545 0.438,-0.52 0.482,-0.47C0.526,-0.42 0.548,-0.353 0.548,-0.268ZM0.14,-0.268C0.14,-0.2 0.154,-0.148 0.181,-0.112C0.208,-0.076 0.249,-0.058 0.302,-0.058C0.355,-0.058 0.395,-0.076 0.423,-0.112C0.45,-0.147 0.464,-0.199 0.464,-0.268C0.464,-0.336 0.45,-0.388 0.423,-0.423C0.395,-0.458 0.354,-0.476 0.301,-0.476C0.248,-0.476 0.208,-0.459 0.181,-0.424C0.154,-0.389 0.14,-0.337 0.14,-0.268Z" style="fill:white;fill-rule:nonzero;"/>
                    </g>
                </g>
                <g transform="matrix(-0.0656601,0,0,0.0656601,712.218,106.677)">
                    <path d="M1040.44,625.461C955.291,625.865 870.307,658.486 806.859,715.801C736.18,779.649 693.16,872.737 691.342,968.993C691.3,971.234 691.282,973.476 691.278,975.717L691.278,1283.53L776.311,1283.53C776.311,1180.65 776.131,1077.78 776.313,974.897C776.707,891.057 818.766,809.383 886.802,760.365C956.366,710.245 1050.65,696.798 1131.96,726.308C1229.26,761.618 1301.78,856.115 1306.57,963.786C1306.75,967.783 1306.83,971.785 1306.84,975.792L1306.84,1283.53L1391.87,1283.53L1391.87,667.976L1306.84,667.976L1306.84,747.053C1306.46,746.617 1306.08,746.182 1305.7,745.747C1239.49,669.97 1141.47,625.93 1042.7,625.461C1041.95,625.46 1041.2,625.46 1040.44,625.461Z" style="fill:white;fill-rule:nonzero;"/>
                </g>
            </g>
        </g>
    </g>
</svg>
